<?xml version="1.0" standalone="no"?><!DOCTYPE svg PUBLIC "-//W3C//DTD SVG 1.1//EN" "http://www.w3.org/Graphics/SVG/1.1/DTD/svg11.dtd"><svg t="1681233060647" class="icon" viewBox="0 0 1024 1024" version="1.1" xmlns="http://www.w3.org/2000/svg" p-id="1688" xmlns:xlink="http://www.w3.org/1999/xlink" width="200" height="200"><path d="M629.3 906.1H394.7l-77.9-74c23.4-89.3 83.4-130.1 83.4-130.1h223.7s59.9 40.8 83.4 130.1l-78 74z" fill="#F7867F" p-id="1689"></path><path d="M394.7 827.1v79h-87.2c0-27.6 3.5-57.2 9.3-79h77.9zM716.5 906.1h-87.2v-79h77.9c5.7 21.8 9.3 51.4 9.3 79z" fill="#E96E67" p-id="1690"></path><path d="M249.7 470.5m-76.8 0a76.8 76.8 0 1 0 153.6 0 76.8 76.8 0 1 0-153.6 0Z" fill="#F7DBD0" p-id="1691"></path><path d="M774.3 470.5m-76.8 0a76.8 76.8 0 1 0 153.6 0 76.8 76.8 0 1 0-153.6 0Z" fill="#F7DBD0" p-id="1692"></path><path d="M512 459.5m-269.3 0a269.3 269.3 0 1 0 538.6 0 269.3 269.3 0 1 0-538.6 0Z" fill="#FFECE3" p-id="1693"></path><path d="M553 794.4h-82c-49.8 0-90.6-40.8-90.6-90.6v-16.6c0-13.3 10.9-24.1 24.1-24.1h214.8c13.3 0 24.1 10.9 24.1 24.1v16.6c0.1 49.9-40.6 90.6-90.4 90.6z" fill="#70BE6B" p-id="1694"></path><path d="M731.2 503.4c-14.4 32.8-55 85.9-81.7 85.9-65.6 0-68.2-32.1-137.5-32.1s-71.9 32.1-137.5 32.1c-26.8 0-67.3-53.1-81.7-85.9s-50.1-43.9-50.1-43.9c0 148.7 120.6 269.3 269.3 269.3s269.3-120.6 269.3-269.3c0 0-35.7 11.1-50.1 43.9z" fill="#DEE3E3" p-id="1695"></path><path d="M813.6 407.6c-113.6-0.1-218.4-38.2-302.2-102.3-83.5 63.9-187.8 101.9-300.9 102.3 5.7-112.3 72.7-208.3 168.2-255.4 40.2-19.8 85.5-31 133.4-31 47.5 0 92.4 11 132.4 30.5 96 46.8 163.4 143.2 169.1 255.9z" fill="#5C6A7C" p-id="1696"></path><path d="M495.4 824.8a16.6 16.6 0 1 0 33.2 0 16.6 16.6 0 1 0-33.2 0Z" fill="#FFFFFF" p-id="1697"></path><path d="M495.4 876a16.6 16.6 0 1 0 33.2 0 16.6 16.6 0 1 0-33.2 0Z" fill="#FFFFFF" p-id="1698"></path><path d="M436.3 526.3c-7 0-12.7-5.7-12.7-12.7v-10.2c0-7 5.7-12.7 12.7-12.7s12.7 5.7 12.7 12.7v10.2c0 7.1-5.7 12.7-12.7 12.7zM587.7 526.3c-7 0-12.7-5.7-12.7-12.7v-10.2c0-7 5.7-12.7 12.7-12.7s12.7 5.7 12.7 12.7v10.2c0 7.1-5.7 12.7-12.7 12.7zM512 627.7c-16.4 0-31.9-7.1-42.7-19.4-4.6-5.3-4-13.3 1.2-17.9 5.3-4.6 13.3-4 17.9 1.2 6 6.8 14.6 10.8 23.6 10.8s17.6-3.9 23.6-10.7c4.6-5.3 12.6-5.8 17.9-1.2 5.3 4.6 5.8 12.6 1.2 17.9-10.8 12.2-26.3 19.3-42.7 19.3z" fill="#450064" p-id="1699"></path><path d="M239 328.2s0-415.2 579.6-138c0 0-57.6 18.3-39.9 138H239z" fill="#E96E67" p-id="1700"></path><path d="M839.5 176.6m-62.5 0a62.5 62.5 0 1 0 125 0 62.5 62.5 0 1 0-125 0Z" fill="#F3F3F3" p-id="1701"></path><path d="M801.1 354.1H222.9c-21.2 0-38.4-17.2-38.4-38.4s17.2-38.4 38.4-38.4H801c21.2 0 38.4 17.2 38.4 38.4 0.1 21.1-17.1 38.4-38.3 38.4z" fill="#F3F3F3" p-id="1702"></path><path d="M839.5 249.1c40 0 72.5-32.5 72.5-72.5s-32.5-72.5-72.5-72.5c-33.2 0-61.2 22.4-69.8 52.8C590 79.3 450.7 64.2 355.6 112c-35.1 17.7-63.8 43.9-85.2 77.8-14.4 22.9-25.4 48.9-32.6 77.4h-14.9c-26.7 0-48.4 21.7-48.4 48.4 0 20.9 13.3 38.7 31.8 45.5-2.5 12.3-4.2 24.8-5.2 37.4-23.7 16.1-38.2 43.2-38.2 71.9 0 47.9 38.9 86.8 86.8 86.8h0.6c13.8 37 35.5 70.9 64.3 99.7 17 17 35.7 31.5 55.9 43.4v3.5c0 3.6 0.2 7.1 0.6 10.7-20 20.7-45.1 54.2-60.2 102.6h-1.6l-2 7.4c-6 22.7-9.6 53.2-9.6 81.6v10h429v-10c0-28-3.6-58.5-9.6-81.5l-2-7.5h-1.6c-15.2-48.4-40.4-82-60.4-102.7 0.4-3.6 0.6-7.2 0.6-10.6v-3.4c20.2-11.9 39-26.4 56-43.4 29.1-29.1 51-63.6 64.8-101.2v1.5c47.9 0 86.8-38.9 86.8-86.8 0-28.7-14.5-55.7-38.1-71.8-0.9-12.3-2.7-24.9-5.2-37.5 6.5-2.4 12.5-6.2 17.5-11.3 9.1-9.2 14.1-21.3 14.1-34.2 0-26.7-21.7-48.4-48.4-48.4h-14.8c1.2-13 3.8-24.5 7.7-34.4 12.3 10.1 28.1 16.2 45.4 16.2zM364.7 129.9c41.3-20.8 92.9-28.7 153.4-23.6 70.7 6 154.5 30 249 71.2 0.2 14.5 4.6 28 12.2 39.2-7 14.1-11.4 31-13.1 50.5H258.5c12.8-47 41.6-104.8 106.2-137.3zM182.9 470.5c0-20.7 9.8-40.3 26-52.9h1.6c8.5 0 17-0.2 25.4-0.7-1.5 9.6-2.5 19.3-2.9 29.1l-0.3-0.1v13.6c0 26.6 3.7 52.6 10.9 77.5-34-3.1-60.7-31.7-60.7-66.5z m64.3-74.4c-8.6 0.7-17.2 1.1-25.9 1.3 1-11.3 2.6-22.4 4.9-33.4H387c-33.6 13.3-68.5 22.6-104.2 28-11.7 1.8-23.7 3.1-35.6 4.1z m137.6 500h-67.1c0.6-20.7 3.1-41.7 7-59h60.1v59z m108.3-1.3c0.4 0.4 0.9 0.9 1.4 1.3h-89.9v-79h-72.8c11.8-34.7 29.1-60.7 44.7-79 5.9 16 15.8 30.4 28.9 41.8 18.3 15.8 41.6 24.5 65.6 24.5h23.9c-0.6 0.5-1.2 1-1.8 1.6-10.4 10.4-10.4 27.2 0 37.6 3.3 3.3 7.4 5.6 11.6 6.8-4.3 1.2-8.3 3.4-11.6 6.8-5 5-7.8 11.7-7.8 18.8s2.8 13.8 7.8 18.8zM390.8 711.1c37.3 18 78.6 27.6 121.2 27.6s83.8-9.5 121.1-27.5c-0.1 1.8-0.3 3.5-0.6 5.1-2.9 18.7-12.6 35.9-27 48.4-14.6 12.7-33.3 19.6-52.6 19.6H471c-39.2 0-73.4-29.2-79.6-67.9-0.3-1.8-0.5-3.5-0.6-5.3z m116.6 109.1c2.6-2.6 6.8-2.6 9.3 0 2.5 2.5 2.5 6.7 0 9.3-2.6 2.6-6.8 2.6-9.3 0-2.6-2.6-2.6-6.8 0-9.3z m9.3 60.5c-2.6 2.6-6.8 2.6-9.3 0-1.2-1.2-1.9-2.9-1.9-4.7s0.7-3.4 1.9-4.7c1.3-1.3 3-1.9 4.7-1.9s3.4 0.6 4.7 1.9c1.2 1.2 1.9 2.9 1.9 4.7-0.1 1.8-0.8 3.4-2 4.7z m189.6 15.4h-67v-59h60c3.9 17.5 6.4 38.6 7 59z m-14-79h-73v79h-89.9c0.5-0.4 0.9-0.8 1.4-1.3 5-5 7.8-11.7 7.8-18.8s-2.8-13.8-7.8-18.8c-3.3-3.3-7.4-5.6-11.6-6.8 4.3-1.2 8.3-3.4 11.6-6.8 10.4-10.4 10.4-27.2 0-37.6-0.6-0.6-1.2-1.1-1.8-1.6h23.9c24.1 0 47.4-8.7 65.6-24.5 13.1-11.3 23-25.8 28.9-41.8 15.7 18.2 33 44.2 44.9 79z m3-174.3c-49 49-114.1 76-183.3 76s-134.4-27-183.3-76c-45.2-45.2-71.7-104.2-75.5-167.5 10.1 5.8 23.4 16 30.5 32.1 14.5 33 57.2 91.9 90.9 91.9 34.5 0 53-8.5 70.8-16.6 17.4-8 33.7-15.5 66.7-15.5s49.3 7.5 66.7 15.5c17.8 8.2 36.3 16.6 70.8 16.6 33.6 0 76.4-58.9 90.9-91.9 7.1-16.1 20.4-26.3 30.5-32.1-4 63.3-30.4 122.3-75.7 167.5zM722 499.4c-7.1 16.2-20.7 36.9-34.6 52.7-15 17.1-29.2 27.3-38 27.3-30.2 0-45.9-7.2-62.5-14.8-18.5-8.5-37.7-17.3-75-17.3s-56.5 8.8-75 17.3c-16.6 7.6-32.3 14.8-62.5 14.8-8.8 0-23-10.2-38-27.3-13.9-15.8-27.4-36.5-34.6-52.7-12.1-27.5-36.9-41.3-49.2-46.7 0.3-12.6 1.6-25.1 3.7-37.3 9.8-0.9 19.7-2.1 29.3-3.6 52.3-7.9 102.8-23.9 150.2-47.7h150.8c47.6 23.8 98.5 40 151.4 47.9 10 1.5 20 2.7 29.6 3.5 2.1 12.2 3.3 24.6 3.6 37.2-12.3 5.4-37.1 19.2-49.2 46.7z m19-107.2c-36.2-5.4-71.4-14.9-105.2-28.1H798c2.3 11.2 3.9 22.4 4.9 33.4-8.6-0.2-17.3-0.6-26.1-1.3-11.6-0.8-23.6-2.2-35.8-4z m100.1 78.3c0 34.8-26.7 63.4-60.7 66.5 7.1-24.9 10.9-50.9 10.9-77.5v-13.6l-0.3 0.1c-0.5-9.8-1.4-19.5-2.9-29.1 8.7 0.4 17.2 0.7 25.5 0.7h1.5c16.2 12.6 26 32.2 26 52.9zM801 287.3c15.7 0 28.4 12.7 28.4 28.4 0 7.5-2.9 14.6-8.2 20-5.4 5.4-12.5 8.4-20.1 8.4H222.9c-15.7 0-28.4-12.7-28.4-28.4s12.7-28.4 28.4-28.4h29l1.3 0.7c0.1-0.2 0.3-0.5 0.4-0.7H801z m38.5-163.2c28.9 0 52.5 23.6 52.5 52.5s-23.6 52.5-52.5 52.5-52.5-23.6-52.5-52.5 23.6-52.5 52.5-52.5z" fill="#450064" p-id="1703"></path></svg>