<?xml version="1.0" standalone="no"?><!DOCTYPE svg PUBLIC "-//W3C//DTD SVG 1.1//EN" "http://www.w3.org/Graphics/SVG/1.1/DTD/svg11.dtd"><svg t="1681223963123" class="icon" viewBox="0 0 1024 1024" version="1.1" xmlns="http://www.w3.org/2000/svg" p-id="2262" xmlns:xlink="http://www.w3.org/1999/xlink" width="200" height="200"><path d="M707.3 832.1l-78 74H394.7l-77.9-74c23.4-89.3 83.4-130.1 83.4-130.1h223.7s59.9 40.8 83.4 130.1z" fill="#E96E67" p-id="2263"></path><path d="M512 702v204.1H394.7l-77.9-74c23.4-89.3 83.4-130.1 83.4-130.1H512z" fill="#4EAEE0" p-id="2264"></path><path d="M394.7 827.1v79h-87.2c0-27.6 3.5-57.2 9.3-79h77.9z" fill="#64C4F6" p-id="2265"></path><path d="M716.5 906.1h-87.2v-79h77.9c5.7 21.8 9.3 51.4 9.3 79z" fill="#F7867F" p-id="2266"></path><path d="M671.9 697.8l-46.5 41.4 20.7 62.7c4.2 11.7-7.2 23.1-18.9 18.9L549.5 795l-24 48.3c-2.7 5.4-8.1 8.4-13.5 8.4s-10.8-3-13.5-8.4l-24-48.3-77.7 25.8c-11.4 4.2-23.1-6.9-18.9-18.9l20.7-62.7-46.5-41.4c-10.2-9-3.9-26.1 9.9-26.1h300c13.8 0 20.1 17.1 9.9 26.1z" fill="#99D37A" p-id="2267"></path><path d="M249.7 470.5m-76.8 0a76.8 76.8 0 1 0 153.6 0 76.8 76.8 0 1 0-153.6 0Z" fill="#F7DBD0" p-id="2268"></path><path d="M774.3 470.5m-76.8 0a76.8 76.8 0 1 0 153.6 0 76.8 76.8 0 1 0-153.6 0Z" fill="#F7DBD0" p-id="2269"></path><path d="M512 459.5m-269.3 0a269.3 269.3 0 1 0 538.6 0 269.3 269.3 0 1 0-538.6 0Z" fill="#FFECE3" p-id="2270"></path><path d="M813.6 407.6c-113.6-0.1-218.4-38.2-302.2-102.3-83.5 63.9-187.8 101.9-300.9 102.3 5.7-112.3 72.7-208.3 168.2-255.4 40.2-19.8 85.5-31 133.4-31 47.5 0 92.4 11 132.4 30.5 96 46.8 163.4 143.2 169.1 255.9z" fill="#FCE170" p-id="2271"></path><path d="M496.675397 882.339855a16.6 16.6 0 1 0 30.672801-12.70509 16.6 16.6 0 1 0-30.672801 12.70509Z" fill="#FFFFFF" p-id="2272"></path><path d="M457.6 571.8a54.4 54.4 0 1 0 108.8 0 54.4 54.4 0 1 0-108.8 0Z" fill="#F7867F" p-id="2273"></path><path d="M436.3 526.3c-7 0-12.7-5.7-12.7-12.7v-10.2c0-7 5.7-12.7 12.7-12.7s12.7 5.7 12.7 12.7v10.2c0 7.1-5.7 12.7-12.7 12.7zM587.7 526.3c-7 0-12.7-5.7-12.7-12.7v-10.2c0-7 5.7-12.7 12.7-12.7s12.7 5.7 12.7 12.7v10.2c0 7.1-5.7 12.7-12.7 12.7z" fill="#450064" p-id="2274"></path><path d="M927.6 211.9c0 21.2-16.6 37.8-37.8 37.8h-75.6c-21.2 0-37.8 16.6-37.8 37.8h-529c0-21.2-16.6-37.8-37.8-37.8H134c-21.2 0-37.8-16.6-37.8-37.8 0-104.3 84.6-191.5 188.9-191.5h75.6c62 0 116.4 29.5 151.1 75.6v-0.1c34.8-46 89.2-75.5 151.1-75.5h75.6c104.5 0.1 189.1 87.2 189.1 191.5z" fill="#64C4F6" p-id="2275"></path><path d="M927.6 211.9c0 21.2-16.6 37.8-37.8 37.8h-75.6c-21.2 0-37.8 16.6-37.8 37.8H512V96c34.8-46 89.2-75.5 151.1-75.5h75.6c104.3 0 188.9 87.1 188.9 191.4z" fill="#F7867F" p-id="2276"></path><path d="M95.9 294.1c-37.7 0-68.4-30.7-68.4-68.4s30.7-68.4 68.4-68.4 68.4 30.7 68.4 68.4-30.7 68.4-68.4 68.4z" fill="#99D37A" p-id="2277"></path><path d="M928.1 294.1c-37.7 0-68.4-30.7-68.4-68.4s30.7-68.4 68.4-68.4 68.4 30.7 68.4 68.4-30.7 68.4-68.4 68.4z" fill="#FCE170" p-id="2278"></path><path d="M801.1 354.1H222.9c-21.2 0-38.4-17.2-38.4-38.4s17.2-38.4 38.4-38.4H801c21.2 0 38.4 17.2 38.4 38.4 0.1 21.1-17.1 38.4-38.3 38.4z" fill="#F3F3F3" p-id="2279"></path><path d="M512 507.4c-17.2 0-33.4 6.7-45.5 18.9-25.1 25.1-25.1 66 0 91.1 12.2 12.2 28.3 18.9 45.5 18.9s33.4-6.7 45.5-18.9c25.1-25.1 25.1-66 0-91.1-12.1-12.2-28.3-18.9-45.5-18.9z m31.4 95.8c-8.4 8.4-19.5 13-31.4 13s-23-4.6-31.4-13c-17.3-17.3-17.3-45.5 0-62.8 8.4-8.4 19.5-13 31.4-13s23 4.6 31.4 13c17.3 17.3 17.3 45.5 0 62.8z" fill="#450064" p-id="2280"></path><path d="M928.1 147.3h-1.5c-0.3-0.9-0.6-1.6-0.9-2.4-0.1-0.1-0.1-0.3-0.2-0.4 0 0 0-0.1-0.1-0.1v-0.1c-0.3-0.8-0.6-1.7-1-2.8-0.1-0.2-0.2-0.5-0.2-0.7-0.1-0.2-0.1-0.4-0.2-0.6-0.3-0.9-0.7-2.1-1.2-3.3-0.5-1.3-1-2.5-1.5-3.7 0-0.1-0.1-0.1-0.1-0.2l-0.9-2c-0.2-0.6-0.5-1.3-0.8-1.9 0 0 0-0.1-0.1-0.1-0.2-0.5-0.4-0.9-0.6-1.3 0-0.1-0.1-0.1-0.1-0.2-0.1-0.4-0.3-0.7-0.5-1.1l-1.7-3.3c-0.3-0.6-0.6-1.4-1.1-2.2l-0.7-1.4c-0.1-0.2-0.2-0.3-0.3-0.5-0.2-0.3-0.3-0.5-0.4-0.8-0.2-0.3-0.3-0.6-0.5-1-0.3-0.5-0.6-1.1-0.9-1.6l-0.6-1.2c-0.1-0.3-0.3-0.6-0.5-0.8-0.2-0.3-0.3-0.5-0.5-0.8-0.3-0.5-0.5-0.9-0.8-1.4-0.1-0.3-0.3-0.6-0.6-1.1-1.9-3.2-3.7-6.1-5.5-8.8-0.5-0.9-1-1.6-1.4-2.2-0.1-0.1-0.1-0.2-0.2-0.3l-1.5-2.1-0.9-1.2c-0.2-0.3-0.5-0.7-0.7-1 0-0.1-0.1-0.1-0.1-0.2-0.2-0.3-0.5-0.7-0.7-1-0.3-0.5-0.7-0.9-1-1.4l-0.2-0.3c-0.4-0.6-0.9-1.3-1.6-2.1l-0.4-0.4v-0.1c-0.4-0.6-0.8-1.1-1.2-1.6-0.2-0.3-0.5-0.6-0.7-1-0.3-0.4-0.5-0.7-0.8-1-0.2-0.2-0.3-0.4-0.5-0.6-0.5-0.7-1-1.4-1.5-2-0.6-0.8-1.2-1.5-1.7-2.1-0.3-0.3-0.6-0.7-0.9-1l-0.3-0.3c0-0.1-0.1-0.1-0.1-0.2-0.3-0.4-0.7-0.8-1.1-1.2-0.2-0.2-0.3-0.4-0.5-0.5-0.2-0.2-0.4-0.5-0.6-0.7-0.1-0.1-0.3-0.3-0.4-0.5l-0.9-0.9c-0.5-0.5-0.9-1-1.4-1.5-0.4-0.4-0.8-0.8-1.2-1.3-0.1-0.1-0.2-0.3-0.4-0.4l-1-1c-0.5-0.5-0.9-1-1.4-1.4l-1.7-1.7c-0.5-0.6-1-1-1.3-1.3-0.1-0.1-0.2-0.2-0.4-0.3l-0.9-0.9c-0.5-0.5-1-0.9-1.4-1.3-0.4-0.3-0.7-0.7-1.1-1-0.5-0.5-1-0.9-1.5-1.4-0.1-0.1-0.2-0.1-0.2-0.2-0.2-0.2-0.4-0.3-0.5-0.5-0.3-0.2-0.5-0.5-0.8-0.7-0.6-0.6-1.2-1.1-1.7-1.5-0.7-0.7-1.4-1.3-2-1.8-0.1-0.1-0.2-0.1-0.3-0.2l-0.1-0.1c-0.3-0.2-0.5-0.5-0.8-0.7-0.8-0.7-1.6-1.4-2.6-2.1-0.5-0.4-0.9-0.7-1.3-1-0.4-0.3-0.7-0.5-1.1-0.8-0.6-0.5-1.1-0.8-1.5-1.1-0.2-0.1-0.3-0.2-0.5-0.4-0.2-0.1-0.3-0.3-0.5-0.4-0.5-0.4-1-0.7-1.5-1.1-0.3-0.2-0.5-0.4-0.8-0.6-0.4-0.3-0.7-0.5-0.9-0.7-1.1-0.9-2.2-1.7-3.3-2.4-0.7-0.5-1.4-1-2.2-1.4-0.6-0.4-1.2-0.8-1.7-1.2-0.1-0.1-0.3-0.2-0.5-0.3-0.6-0.4-1.2-0.7-1.8-1.1-0.6-0.4-1.1-0.7-1.7-1.1-1-0.7-1.9-1.3-2.8-1.7-0.7-0.4-1.2-0.8-1.6-1l-0.2-0.1c-0.1-0.1-0.2-0.1-0.4-0.2-0.5-0.2-0.9-0.5-1.4-0.8-0.6-0.4-1.3-0.8-1.9-1.1-0.1-0.1-0.2-0.1-0.3-0.2l-0.6-0.3c-0.9-0.6-1.7-1-2.2-1.3l-0.8-0.4c-1-0.6-2-1.1-2.8-1.5l-3.6-1.8-1.2-0.6c-0.2-0.1-0.3-0.1-0.5-0.2-1.6-0.8-3.2-1.5-4.7-2.2-1.5-0.7-3-1.3-4.7-2l-2-0.9c-0.1 0-0.1-0.1-0.2-0.1-0.5-0.2-1.1-0.4-1.7-0.7-0.5-0.2-1-0.4-1.4-0.5-0.2-0.1-0.4-0.1-0.6-0.2-0.5-0.2-1-0.3-1.5-0.5-0.7-0.3-1.4-0.5-2.1-0.8l-1.8-0.6c-0.2-0.1-0.4-0.1-0.6-0.2l-0.9-0.3c-0.2-0.1-0.4-0.1-0.5-0.2-0.5-0.2-0.9-0.3-1.2-0.4-0.1 0-0.2 0-0.3-0.1-0.5-0.2-1-0.3-1.5-0.5-0.1 0-0.3-0.1-0.4-0.1-0.6-0.3-1.1-0.4-1.7-0.6-0.2-0.1-0.4-0.1-0.5-0.2-0.2-0.1-0.4-0.1-0.6-0.2-1.1-0.4-2.2-0.7-3-0.9l-1.8-0.5-0.9-0.3c-1.1-0.3-1.9-0.5-2.5-0.6l-1.2-0.3c-0.6-0.1-1.2-0.3-1.7-0.4-0.6-0.1-1.3-0.3-2-0.4-0.5-0.1-1.1-0.2-1.6-0.4-0.9-0.3-1.7-0.4-2.3-0.5-0.2-0.1-0.5-0.1-0.6-0.1h-0.2c-0.6-0.1-1.3-0.2-1.9-0.4-0.3 0-0.5-0.1-0.8-0.1-0.3-0.1-0.5-0.1-0.8-0.1l-0.9-0.1c-0.3-0.1-0.7-0.1-1-0.2-0.3 0-0.6-0.1-1-0.1-0.3 0-0.6-0.1-0.8-0.1-0.3-0.1-0.7-0.1-1.1-0.2-0.3 0-0.6-0.1-0.8-0.1-0.3-0.1-0.7-0.1-1.1-0.2-0.3 0-0.6-0.1-0.8-0.1h-0.1c-1.3-0.2-2.8-0.4-4.3-0.6-0.4-0.1-0.9-0.1-1.3-0.1h-0.4c-0.2 0-0.4-0.1-0.6-0.1-0.3 0-0.7-0.1-1.2-0.1-0.3 0-0.7-0.1-1.2-0.1-0.4 0-0.9-0.1-1.6-0.1h-0.2c-0.5 0-1.4-0.1-2.3-0.1-0.8 0-1.6-0.1-2.4-0.1-0.4 0-0.7 0-1.1-0.1-1.1-0.1-2-0.1-2.7-0.1h-81.6c-58.7 0-113.1 25.2-151.2 69.7-37.9-44.4-92.3-69.6-151-69.6h-75.6c-43.6 0-85.1 14.3-120 41.2-31.5 24.3-55.5 58-68.2 95.6h-1.1c-43.2 0-78.4 35.2-78.4 78.4s35.2 78.4 78.4 78.4c30.1 0 57.6-17.6 70.6-44.4h43.2c7.5 0 14.3 2.8 19.3 7.6h-6.1c-13.1 0-25.3 5-34.3 14.2-9.1 9.2-14.1 21.4-14.1 34.2 0 20.6 13.1 38.6 31.8 45.4-2.5 12.3-4.2 24.8-5.2 37.4-23.7 16.1-38.2 43.2-38.2 71.9 0 47.9 38.9 86.8 86.8 86.8h0.6c17.8 47.7 48.1 89.3 88.2 121-1 2.9-1.5 5.9-1.4 9 0.2 6.9 3.2 13.2 8.4 17.9l18.6 16.6c-0.6 0.6-1.1 1.2-1.7 1.9-0.2 0.3-0.5 0.5-0.7 0.8l-0.1 0.1c-0.3 0.3-0.6 0.6-0.8 0.9l-0.1 0.1c-0.2 0.2-0.4 0.5-0.7 0.7-0.3 0.3-0.5 0.5-0.7 0.8-0.2 0.2-0.3 0.4-0.5 0.6l-0.1 0.1c-0.3 0.3-0.5 0.5-0.7 0.8-0.4 0.5-0.7 0.9-1.2 1.4 0 0.1-0.1 0.1-0.1 0.2-0.4 0.5-0.7 0.9-1.2 1.4 0 0.1-0.1 0.1-0.1 0.2l-0.6 0.7c-0.2 0.3-0.4 0.5-0.6 0.8-0.3 0.4-0.7 0.8-1 1.2-0.1 0.1-0.2 0.3-0.3 0.4-0.2 0.3-0.5 0.7-0.7 1-0.1 0.2-0.2 0.3-0.4 0.5-0.4 0.6-0.9 1.2-1.5 2-0.1 0.1-0.2 0.3-0.3 0.4-0.2 0.2-0.3 0.4-0.5 0.6-0.3 0.4-0.6 0.9-1 1.4-5.1 7-9.9 14.3-14.2 21.8-0.6 1-1.2 2-1.7 2.9l-3.6 6.6c-0.1 0.1-0.1 0.2-0.2 0.3-0.2 0.3-0.4 0.7-0.5 1-0.3 0.5-0.5 1-0.8 1.5-0.1 0.1-0.1 0.2-0.2 0.3-0.2 0.4-0.4 0.7-0.6 1.1-0.3 0.6-0.7 1.3-1 1.9l-0.2 0.5c-0.1 0.1-0.1 0.2-0.2 0.3-0.2 0.4-0.4 0.9-0.6 1.3-0.3 0.7-0.7 1.3-1 2.1-0.2 0.4-0.3 0.7-0.5 1.1-0.2 0.5-0.4 0.9-0.7 1.4l-0.9 2.1c-0.3 0.6-0.5 1.2-0.8 1.8-0.3 0.7-0.6 1.3-0.8 1.7-0.1 0.2-0.2 0.4-0.2 0.6-0.1 0.2-0.2 0.5-0.3 0.7-0.1 0.1-0.1 0.3-0.2 0.4-0.2 0.4-0.4 0.8-0.5 1.1l-0.5 1.2c-0.8 1.8-1.6 3.9-2.4 6.1-0.1 0.3-0.3 0.6-0.4 1-0.3 0.6-0.5 1.3-0.8 2.1-0.2 0.4-0.3 0.9-0.5 1.5-0.1 0.2-0.1 0.4-0.2 0.5-0.1 0.2-0.1 0.3-0.2 0.5s-0.2 0.5-0.3 0.7c-0.2 0.3-0.3 0.7-0.4 1.1-0.2 0.6-0.4 1.1-0.6 1.6-0.2 0.6-0.4 1.2-0.6 1.9 0 0.1-0.1 0.3-0.1 0.4-0.1 0.3-0.2 0.5-0.2 0.7-0.3 0.6-0.5 1.3-0.7 2.2-0.4 1.3-0.7 2.4-1 3.5v0.2c-0.1 0.3-0.2 0.7-0.3 1 0 0.1-0.1 0.2-0.1 0.3-1.1 1.2-2 2.7-2.4 4.3-6 22.7-9.6 53.2-9.6 81.6 0 5.5 4.5 10 10 10h408.8c5.5 0 10-4.5 10-10 0-28-3.6-58.5-9.6-81.5-0.5-1.8-1.4-3.3-2.6-4.6-13.5-45-35.8-77.3-54.4-98.2l18.7-16.6c5.2-4.6 8.2-11 8.4-17.9 0.1-3.1-0.4-6.1-1.4-9 40.1-31.7 70.4-73.3 88.2-121.1h0.6c47.9 0 86.8-38.9 86.8-86.8 0-28.7-14.5-55.7-38.1-71.8-0.9-12.3-2.7-24.9-5.2-37.5 18.6-6.8 31.6-24.7 31.6-45.2v-0.2c0-26.7-21.7-48.4-48.4-48.4h-6.4l0.4-0.4c1.2-1.1 2.3-2 3.4-2.7 0.4-0.2 0.7-0.4 1-0.6 0.1 0 0.2-0.1 0.3-0.1 0.2-0.1 0.5-0.3 0.8-0.4l0.6-0.3c0.2-0.1 0.5-0.2 0.7-0.4l0.6-0.3c0.2-0.1 0.4-0.2 0.6-0.2l1.4-0.5c0.2-0.1 0.4-0.1 0.5-0.2 0.1 0 0.1 0 0.2-0.1 0.4-0.1 0.8-0.2 1.3-0.3h0.1c0.3-0.1 0.6-0.1 0.9-0.2 0.2-0.1 0.5-0.1 0.7-0.2 0.1 0 0.2-0.1 0.4-0.1 0.3-0.1 0.6-0.1 0.8-0.2 0.1 0 0.3-0.1 0.5-0.1h0.1c0.2 0 0.3 0 0.5-0.1 0.3 0 0.5-0.1 0.7-0.1 0.2 0 0.4 0 0.5-0.1 0.5 0 1.1 0 1.8-0.1h44.1c12.6 26.4 39.6 44.6 70.7 44.6 43.2 0 78.4-35.2 78.4-78.4s-35.4-78.2-78.6-78.2zM95.9 284.1c-32.2 0-58.4-26.2-58.4-58.4s26.2-58.4 58.4-58.4c2.1 0 4.4 0.1 7 0.4 29.3 3.5 51.4 28.5 51.4 58 0 7.1-1.3 14-3.7 20.4v0.1c-8.6 22.7-30.5 37.9-54.7 37.9z m113.8-44.4H173c0.8-4.6 1.3-9.2 1.3-14 0-35.5-23.8-66-57.1-75.4 11.8-32.5 32.9-61.5 60.3-82.7 31.4-24.2 68.6-37.1 107.8-37.1h75.6c55.6 0 106.8 25.1 141.1 69v167.8H253.1c-7.6-16.8-24.2-27.6-43.4-27.6z m37.5 156.4c-8.6 0.7-17.2 1.1-25.9 1.3 1-11.3 2.6-22.4 4.9-33.4H387c-33.6 13.2-68.4 22.5-104.1 27.9-11.8 1.9-23.8 3.3-35.7 4.2z m-64.3 74.4c0-20.8 9.9-40.4 26.2-53 0.5 0.1 1 0.1 1.4 0.1 8.5 0 17-0.2 25.4-0.7-2.1 13.9-3.2 28.2-3.2 42.6 0 26.4 3.7 52.4 10.9 77.5-34-3.1-60.7-31.7-60.7-66.5z m435.8 261.1c-3 2.7-4.1 6.8-2.8 10.6l20.7 62.7c0 0.1 0.1 0.2 0.1 0.2 0.9 2.5-0.5 4.3-1.1 5-0.6 0.6-2.4 2.1-5 1.1-0.1 0-0.2-0.1-0.2-0.1l-77.7-25.8c-4.7-1.6-9.9 0.6-12.1 5l-24 48.3c-1.1 2.1-3.1 2.9-4.6 2.9-1.4 0-3.5-0.8-4.5-2.8l-24-48.3c-2.2-4.5-7.4-6.6-12.1-5l-77.7 25.8c-0.1 0-0.2 0.1-0.3 0.1-2.4 0.9-4.2-0.5-4.8-1.1-0.8-0.8-2-2.5-1.2-5.1 0-0.1 0-0.1 0.1-0.2l20.7-62.7c1.2-3.8 0.1-7.9-2.8-10.6l-36-32.1c8 4.8 16.2 9.1 24.5 13 37.1 17.3 76.8 26.1 118.2 26.1 41.4 0 81.2-8.8 118.2-26.1 8.4-4 16.6-8.3 24.6-13.1l-36.2 32.2z m-214 97l64.7-21.5 20.1 40.5c1.5 2.9 3.5 5.5 5.8 7.6-6.1 4.9-10 12.4-10 20.7 0 8 3.6 15.2 9.2 20.1h-89.9v-67.4zM505.4 876c0-3.6 3-6.6 6.6-6.6 3.6 0 6.6 3 6.6 6.6s-3 6.6-6.6 6.6c-3.6 0-6.6-3-6.6-6.6z m23.2-20.7c2.4-2.1 4.3-4.7 5.8-7.6l20.1-40.5 64.7 21.5v67.5h-89.9c5.6-4.9 9.2-12.1 9.2-20.1 0.1-8.5-3.8-16-9.9-20.8zM332 815.4c0.3-0.6 0.4-1.1 0.6-1.5 0.1-0.4 0.3-0.7 0.4-1.1 0.1-0.2 0.1-0.3 0.2-0.5 0.2-0.5 0.4-1 0.5-1.5 0.2-0.5 0.4-0.9 0.5-1.4 0.2-0.6 0.5-1.1 0.7-1.7 0-0.1 0.1-0.2 0.1-0.3 0.5-1.6 1.2-3.2 1.9-5l0.6-1.4c0.1-0.1 0.1-0.3 0.2-0.4 0.1-0.3 0.3-0.6 0.4-0.8 0.3-0.6 0.5-1.1 0.7-1.6 0.1-0.2 0.2-0.4 0.2-0.6 0-0.1 0.1-0.2 0.1-0.3 0.3-0.7 0.6-1.4 1-2.1 0.3-0.6 0.6-1.3 0.8-1.9 0 0 0-0.1 0.1-0.1 0.2-0.4 0.3-0.7 0.5-1.1 0.2-0.5 0.5-1 0.7-1.4 0.2-0.4 0.4-0.9 0.6-1.3l0.9-1.8 0.2-0.4c0.1-0.1 0.1-0.2 0.2-0.3 0.2-0.4 0.4-0.7 0.6-1.1 0.3-0.6 0.7-1.3 1-1.9 0.1-0.3 0.3-0.6 0.5-0.9 0.2-0.4 0.5-0.9 0.7-1.3l3.5-6.4c0.4-0.8 0.9-1.6 1.2-2.2 0.1-0.1 0.1-0.2 0.2-0.3 4.1-7 8.5-13.9 13.3-20.4 0.1-0.2 0.3-0.4 0.4-0.6 0.3-0.4 0.7-1.1 1.2-1.7l0.9-1.2c0.3-0.3 0.5-0.7 0.8-1.1 0-0.1 0.1-0.1 0.1-0.2 0.6-0.8 0.9-1.2 1.2-1.5 0.1-0.1 0.1-0.2 0.2-0.3 0.2-0.2 0.4-0.5 0.6-0.7 0.2-0.3 0.4-0.5 0.6-0.8 0.5-0.6 0.9-1.1 1.3-1.6s0.7-0.9 1.1-1.3c0.5-0.5 0.9-1 1.3-1.5 0.3-0.3 0.6-0.7 1-1.1 0.1-0.1 0.2-0.3 0.4-0.4l0.1-0.1c0.3-0.3 0.6-0.6 0.8-0.9l0.1-0.1c0.1-0.1 0.1-0.2 0.2-0.2 0.7-0.8 1.3-1.4 1.9-2.1l8 7.1-18.6 56.4c-2.2 6.2-1.8 12.8 0.9 18.5h-37.8c0.1-0.2 0.1-0.4 0.2-0.6-0.2-0.2-0.1-0.6 0-1z m-7.4 21.7h60.1v59h-67c0.6-20.7 3.1-41.7 6.9-59z m314.7 59v-59h60c3.9 17.5 6.4 38.6 7 59h-67z m53-79h-37.6c2.7-5.7 3-12.3 0.8-18.5L637 742.2l7.9-7.1c15.9 17.9 34.8 44.9 47.4 82z m-25.9-149.3c-13.8 10.3-28.8 19.2-44.7 26.7-34.4 16.1-71.3 24.3-109.8 24.3s-75.4-8.2-109.8-24.3c-15.7-7.3-30.7-16.3-44.7-26.7-42.4-31.5-73.8-74.3-90.9-124.1v-0.1c-9.3-27-14-55.3-14-84.2 0-14.9 1.3-29.8 3.7-44.1 9.8-0.9 19.7-2.1 29.4-3.6 52.3-7.9 102.8-23.9 150.2-47.7h150.5c47.6 23.8 98.5 40 151.4 47.9 10 1.5 20 2.7 29.6 3.5 2.5 14.3 3.7 29.1 3.7 44 0 28.8-4.7 57.2-14 84.2-16.7 49.8-48.1 92.7-90.6 124.2zM798 364.1c2.3 11.2 3.9 22.4 4.9 33.4-8.6-0.2-17.3-0.6-26.1-1.3-11.2-0.8-22.9-2.1-34.8-3.9-0.7-0.2-1.5-0.3-2.2-0.3-35.8-5.5-70.6-14.8-104-27.9H798z m43.1 106.4c0 34.8-26.7 63.4-60.7 66.5 7.2-25.1 10.9-51.1 10.9-77.5 0-14.4-1.1-28.6-3.2-42.6 8.7 0.4 17.2 0.7 25.5 0.7 0.4 0 0.9 0 1.3-0.1 16.3 12.6 26.2 32.2 26.2 53z m-11.7-154.8v0.2c0 14.2-10.6 26.2-24.6 28-1.2 0.1-2.4 0.2-3.6 0.2H222.9c-1.2 0-2.4-0.1-3.5-0.2-14.2-1.8-24.9-13.9-24.9-28.2 0-7.6 3-14.7 8.3-20.2 5.2-5.3 12.4-8.2 20.1-8.2H801c15.7 0 28.4 12.7 28.4 28.4z m-15.2-76.2c-0.7 0-1.3 0-1.8 0.1h-0.2c-0.5 0-0.9 0-1.4 0.1-0.8 0-1.4 0.1-1.9 0.1-0.3 0-0.6 0.1-0.8 0.1-0.3 0-0.6 0.1-0.8 0.1-0.4 0-0.8 0.1-1.1 0.2-0.2 0-0.5 0.1-0.7 0.1-0.3 0-0.7 0.1-1.1 0.3-0.1 0-0.2 0-0.3 0.1-0.1 0-0.2 0.1-0.4 0.1-0.5 0.1-0.9 0.2-1.4 0.3-0.1 0-0.3 0.1-0.4 0.1-0.3 0.1-0.6 0.2-0.9 0.2-0.9 0.1-1.7 0.4-2.4 0.7-0.2 0.1-0.3 0.1-0.5 0.2l-1.7 0.6c-0.4 0.1-1 0.3-1.8 0.7-0.7 0.3-1.3 0.6-1.6 0.8l-0.6 0.3c-0.1 0.1-0.2 0.1-0.4 0.2l-0.6 0.3h-0.1l-0.6 0.3c-0.5 0.2-1 0.5-1.5 0.8-0.5 0.3-0.8 0.5-1.1 0.7-0.1 0-0.2 0.1-0.2 0.1-2.2 1.4-4.4 3.1-6.7 5.3l-0.2 0.2-1.4 1.4c-0.3 0.3-0.6 0.7-0.9 1-0.1 0.1-0.2 0.3-0.4 0.4-0.2 0.2-0.4 0.5-0.6 0.8l-0.4 0.4c-0.3 0.3-0.5 0.6-0.7 0.9-0.2 0.3-0.5 0.6-0.7 1-0.1 0.1-0.2 0.3-0.3 0.4l-0.8 1.1-0.6 0.9-0.3 0.6-0.1 0.1c-0.3 0.4-0.5 0.8-0.7 1.2l-0.1 0.2c-0.1 0.2-0.2 0.3-0.3 0.5-0.1 0.2-0.2 0.3-0.3 0.5 0 0 0 0.1-0.1 0.1-0.3 0.5-0.6 1-0.8 1.4-0.3 0.6-0.6 1.1-0.8 1.7 0 0.1 0 0.1-0.1 0.2H522v-168c34.4-43.8 85.6-68.9 141.1-68.9h82.1c0.5 0.1 0.9 0.1 1.4 0.1h0.6c0.8 0.1 1.6 0.1 2.4 0.1 0.6 0 1.1 0.1 1.7 0.1h0.2c0.3 0 0.8 0.1 1.3 0.1 0.3 0 0.6 0.1 1.1 0.1 0.3 0 0.6 0.1 1.1 0.1 0.2 0 0.5 0.1 0.8 0.1 0.4 0 0.8 0.1 1.1 0.1h0.4c0.2 0 0.4 0.1 0.6 0.1 0.9 0.1 2 0.2 3.1 0.4 0.3 0.1 0.7 0.1 1 0.2 0.3 0 0.6 0.1 0.8 0.1 0.3 0.1 0.7 0.1 1.1 0.2 0.3 0 0.6 0.1 0.8 0.1 0.3 0.1 0.7 0.1 1.1 0.2l0.8 0.1h0.2l0.9 0.1c0.3 0 0.5 0.1 0.8 0.1l1.5 0.3c0.2 0 0.4 0.1 0.6 0.1 0.4 0.1 0.7 0.2 0.9 0.2 0.2 0.1 0.5 0.1 0.7 0.1 0.1 0 0.3 0 0.4 0.1 0.2 0.1 0.5 0.1 0.8 0.2 0.7 0.2 1.4 0.3 2 0.5 0.7 0.1 1.3 0.3 2 0.4 0.1 0 0.2 0 0.3 0.1l1.2 0.3c0.6 0.2 1.3 0.3 1.9 0.4 0.1 0 0.2 0 0.3 0.1 0.4 0.1 0.8 0.2 1.1 0.3h0.1l2.1 0.6c0.1 0 0.2 0.1 0.3 0.1l0.4 0.1c0.3 0.1 0.8 0.2 1 0.2 0.1 0 0.2 0.1 0.4 0.1 0.4 0.1 0.8 0.2 1.2 0.4 0.1 0 0.2 0.1 0.3 0.1 0.2 0.1 0.4 0.2 0.7 0.2 0.5 0.2 1 0.3 1.6 0.5 0.4 0.1 0.8 0.3 1.2 0.4 0.4 0.1 0.8 0.2 1.1 0.3h0.2c0.3 0.1 0.5 0.2 0.8 0.3 0.1 0 0.2 0.1 0.3 0.1 0.4 0.1 0.7 0.3 1.1 0.4l1.8 0.6c0.5 0.2 1 0.3 1.4 0.5 0.6 0.2 1.2 0.5 1.9 0.7 0.5 0.2 1 0.4 1.4 0.6 0.4 0.2 0.9 0.3 1.3 0.5l2 0.9c0.1 0 0.1 0.1 0.2 0.1 1.4 0.6 2.6 1.1 3.9 1.7 0.1 0 0.2 0.1 0.3 0.1 1.2 0.5 2.5 1.1 3.8 1.8l1.2 0.6c0.2 0.1 0.3 0.1 0.5 0.2l3.6 1.8 1.6 0.8c0.3 0.2 0.5 0.3 0.8 0.5l1.2 0.6c0.2 0.1 0.3 0.2 0.5 0.3 0.5 0.3 1.2 0.7 2.1 1.2 0.4 0.2 0.8 0.5 1.2 0.7 0.6 0.4 1.2 0.7 1.8 1 0.1 0.1 0.3 0.2 0.4 0.2 0.1 0 0.1 0.1 0.2 0.1 0.4 0.3 0.7 0.5 1.1 0.7 0.5 0.3 1.2 0.7 1.5 0.9 0.2 0.2 0.5 0.4 0.8 0.5 0.6 0.4 1.2 0.7 1.7 1.1l1.8 1.2c0.6 0.4 1.3 0.9 1.9 1.3 0.6 0.4 1.2 0.8 1.7 1.1 0.8 0.6 1.6 1.1 2.3 1.7 0.5 0.4 0.9 0.7 1.2 0.9 0.4 0.3 0.9 0.7 1.4 1 0.3 0.2 0.6 0.4 0.8 0.6 0.5 0.4 1 0.8 1.4 1.1 0.2 0.1 0.3 0.2 0.5 0.4 0.1 0.1 0.2 0.2 0.4 0.3 0.5 0.4 0.9 0.7 1.4 1 0.4 0.3 0.8 0.6 1.2 1l0.1 0.1c0.5 0.4 1 0.8 1.7 1.4 0.2 0.1 0.3 0.3 0.5 0.4l0.1 0.1c0.3 0.3 0.6 0.5 0.9 0.8 0.3 0.3 0.7 0.6 0.9 0.8 0.2 0.2 0.5 0.4 0.7 0.6 0.4 0.3 0.8 0.7 1 0.9 0.2 0.2 0.4 0.4 0.7 0.6 0.2 0.2 0.4 0.3 0.5 0.5 0.3 0.3 0.7 0.6 1 0.9 0.3 0.3 0.7 0.6 1 0.9 0.5 0.5 1 0.9 1.6 1.4l0.9 0.9c0.4 0.4 0.8 0.8 1.3 1.2l0.1 0.1c0.1 0.1 0.2 0.3 0.4 0.4l2.1 2.1 1 1c0.4 0.4 0.8 0.9 1.2 1.3 0.5 0.5 0.9 1 1.4 1.5 0.4 0.4 0.8 0.8 1.2 1.3 0.1 0.1 0.2 0.3 0.4 0.4 0.1 0.1 0.3 0.3 0.4 0.5 0.3 0.3 0.5 0.6 0.8 0.8 0.3 0.3 0.5 0.6 0.8 0.9l0.5 0.5c0.3 0.4 0.6 0.7 0.9 1.1l0.3 0.3c0.1 0.1 0.1 0.2 0.2 0.3 0.4 0.5 0.9 1.1 1.2 1.4 0.2 0.3 0.5 0.6 0.7 0.9 0.1 0.2 0.3 0.4 0.4 0.6 0.4 0.5 0.7 0.9 1.1 1.4 0.2 0.2 0.4 0.5 0.6 0.7 0.2 0.3 0.4 0.6 0.7 0.9 0.4 0.4 0.5 0.7 0.7 0.8 0.1 0.2 0.2 0.3 0.3 0.5 0.3 0.4 0.8 1 1.3 1.7 0.1 0.2 0.3 0.4 0.5 0.6l0.4 0.5c0 0.1 0.1 0.1 0.1 0.2 0.2 0.3 0.5 0.7 0.7 1 0.3 0.5 0.7 0.9 1 1.4 0.3 0.4 0.5 0.7 0.8 1.1 0.3 0.3 0.5 0.7 0.7 1l1.4 2c0.3 0.4 0.5 0.8 0.8 1.2 0.1 0.2 0.2 0.3 0.3 0.5 1.7 2.6 3.4 5.3 5.2 8.4 0.1 0.3 0.4 0.7 0.7 1.2 0.2 0.2 0.3 0.5 0.4 0.7 0.2 0.4 0.4 0.8 0.7 1.2 0.2 0.5 0.5 1 0.8 1.4l0.6 1.2c0.1 0.2 0.2 0.3 0.3 0.5 0.2 0.3 0.3 0.5 0.4 0.8 0.2 0.3 0.4 0.7 0.5 1 0 0.1 0.1 0.2 0.1 0.3l0.6 1.2c0.1 0.2 0.3 0.6 0.5 1.1 0.1 0.2 0.2 0.3 0.2 0.5l1.4 2.9c0.1 0.2 0.1 0.3 0.2 0.4 0.2 0.5 0.4 0.9 0.7 1.4 0.1 0.3 0.3 0.6 0.4 0.8 0.2 0.5 0.4 0.9 0.6 1.4l1.1 2.4c0.5 1.1 0.9 2.2 1.4 3.3 0.1 0.2 0.1 0.3 0.2 0.5 0.2 0.5 0.4 1.1 0.7 1.8 0.1 0.4 0.3 0.7 0.4 1.1 0.1 0.2 0.1 0.4 0.2 0.6 0.1 0.3 0.2 0.6 0.4 0.9 0.1 0.2 0.3 0.7 0.4 1.1-32.7 9.5-56.7 39.6-56.7 75.3 0 4.7 0.4 9.3 1.2 13.8h-36.9z m113.9 44.6c-24.9 0-46.2-15.7-54.6-37.7-0.1-0.3-0.2-0.6-0.4-1-2.2-6.2-3.5-12.8-3.5-19.8 0-28.6 20.7-52.4 47.8-57.4 0.7 0.1 1.4 0.2 2.1 0.2 1 0 2.1-0.2 3.2-0.5 0.4-0.1 0.9-0.3 1.3-0.5 1.3-0.1 2.7-0.2 4.1-0.2 32.2 0 58.4 26.2 58.4 58.4 0 32.3-26.2 58.5-58.4 58.5z" fill="#450064" p-id="2281"></path></svg>