<?xml version="1.0" standalone="no"?><!DOCTYPE svg PUBLIC "-//W3C//DTD SVG 1.1//EN" "http://www.w3.org/Graphics/SVG/1.1/DTD/svg11.dtd"><svg t="1681233090087" class="icon" viewBox="0 0 1024 1024" version="1.1" xmlns="http://www.w3.org/2000/svg" p-id="2030" xmlns:xlink="http://www.w3.org/1999/xlink" width="200" height="200"><path d="M903.5 836.3c0 23.5-0.6 46.7-1.6 69.8H122.1c-1-22.9-1.6-46.3-1.6-69.8C120.5 415.9 295.8 75 512 75s391.5 340.9 391.5 761.3z" fill="#F3F3F3" p-id="2031"></path><path d="M181.8 906c0-414.3 95.2-833.6 265.1-833.6 0 0 19.6-34.4 65.1-34.4s65.1 34.4 65.1 34.4c201.7 0 265.1 419.3 265.1 833.6H181.8z" fill="#DEE3E3" p-id="2032"></path><path d="M548.6 50.4c-12.6-5.7-26.6-8.9-41.3-8.9-55.5 0-100.4 45-100.4 100.4s45 100.4 100.4 100.4c14.7 0 28.7-3.2 41.3-8.9 34.8-15.8 59.1-50.8 59.1-91.5s-24.2-75.8-59.1-91.5z" fill="#47515E" p-id="2033"></path><path d="M707.3 832.1l-78 74H394.7l-77.9-74c2-7.7 4.3-15 6.8-22 26.5-74 76.6-108.1 76.6-108.1h223.7s50 34.1 76.6 108.1c2.5 7 4.8 14.3 6.8 22z" fill="#FFECE3" p-id="2034"></path><path d="M707.3 832.1l-78 74H394.7l-77.9-74c2-7.7 4.3-15 6.8-22h376.8c2.6 7 4.9 14.3 6.9 22z" fill="#E96E67" p-id="2035"></path><path d="M394.7 827.1v79h-87.2c0-27.6 3.5-57.2 9.3-79h77.9zM716.5 906.1h-87.2v-79h77.9c5.7 21.8 9.3 51.4 9.3 79z" fill="#FFECE3" p-id="2036"></path><path d="M249.7 470.5m-76.8 0a76.8 76.8 0 1 0 153.6 0 76.8 76.8 0 1 0-153.6 0Z" fill="#F7DBD0" p-id="2037"></path><path d="M774.3 470.5m-76.8 0a76.8 76.8 0 1 0 153.6 0 76.8 76.8 0 1 0-153.6 0Z" fill="#F7DBD0" p-id="2038"></path><path d="M512 459.5m-269.3 0a269.3 269.3 0 1 0 538.6 0 269.3 269.3 0 1 0-538.6 0Z" fill="#FFECE3" p-id="2039"></path><path d="M813.6 407.5c-113.6-0.1-218.4-38.2-302.2-102.3-83.5 63.9-187.8 101.9-300.9 102.3 5.7-112.3 72.7-208.3 168.2-255.4 40.2-19.8 85.5-31 133.4-31 47.5 0 92.4 11 132.4 30.5 96 46.8 163.4 143.2 169.1 255.9z" fill="#5C6A7C" p-id="2040"></path><path d="M704.9 827.1H319.7c-4.2 0-7-4.4-5.1-8.2l34.5-71.7c0.9-2 2.9-3.2 5.1-3.2h316.3c2.2 0 4.2 1.3 5.1 3.2l34.5 71.7c1.8 3.8-1 8.2-5.2 8.2z" fill="#F7867F" p-id="2041"></path><path d="M326.5 558.2a49.8 39.5 0 1 0 99.6 0 49.8 39.5 0 1 0-99.6 0Z" fill="#FFD7DF" p-id="2042"></path><path d="M597.9 558.2a49.8 39.5 0 1 0 99.6 0 49.8 39.5 0 1 0-99.6 0Z" fill="#FFD7DF" p-id="2043"></path><path d="M436.3 526.3c-7 0-12.7-5.7-12.7-12.7v-10.2c0-7 5.7-12.7 12.7-12.7s12.7 5.7 12.7 12.7v10.2c0 7.1-5.7 12.7-12.7 12.7zM587.7 526.3c-7 0-12.7-5.7-12.7-12.7v-10.2c0-7 5.7-12.7 12.7-12.7s12.7 5.7 12.7 12.7v10.2c0 7.1-5.7 12.7-12.7 12.7zM512 597.7c-16.4 0-31.9-7.1-42.7-19.4-4.6-5.3-4-13.3 1.2-17.9 5.3-4.6 13.3-4 17.9 1.2 6 6.8 14.6 10.8 23.6 10.8s17.6-3.9 23.6-10.7c4.6-5.3 12.6-5.8 17.9-1.2 5.3 4.6 5.8 12.6 1.2 17.9-10.8 12.2-26.3 19.3-42.7 19.3z" fill="#450064" p-id="2044"></path><path d="M606.2 94.4l-20.8 54.5H435l-21-55 0.8-0.5c13.2 22 24.6 34.7 33 29.9 14.5-8.1 13.9-25.3 13.5-42.4h0.7c8.3 19 16.7 36.4 27.2 35 18.1-2.3 19-31.3 20.8-57.8h0.8c1.7 26.5 2.7 55.6 20.8 57.8 6.2 0.8 11.6-4.9 16.9-13.5 3.6-6.1 7-13.6 10.5-21.5l0.7 0.1c-0.4 17.1-1 34.3 13.5 42.5 8.4 4.8 19.6-7.7 32.7-29.2l0.3 0.1z" fill="#FCE170" p-id="2045"></path><path d="M606.2 94.4c0.7 0.2 1.3 0.3 2.1 0.3 4.4 0 7.9-3.6 7.9-8 0.1-4.4-3.5-8-7.8-8-4.4 0-7.9 3.6-7.9 8 0 3.3 2.1 6.2 5 7.4M414.6 93.3c2.2-1.4 3.6-3.9 3.6-6.8 0-4.5-3.5-8-7.9-8s-7.8 3.7-7.8 8.1c0 4.5 3.5 8 7.9 8 1.2 0 2.5-0.3 3.5-0.9M461.8 81c5-0.6 9-5 9-10.2 0-5.7-4.5-10.3-10.1-10.3-5.5 0-10.1 4.6-10.1 10.3s4.5 10.3 10.1 10.3h0.4M510.6 58.1c6.9-0.2 12.4-5.8 12.4-12.8s-5.7-12.8-12.8-12.8c-7.1 0-12.8 5.7-12.8 12.8 0 6.9 5.5 12.6 12.4 12.8M559.3 81c0.4 0 0.7 0.1 1 0.1 5.5 0 10.1-4.6 10.1-10.3s-4.4-10.3-10.1-10.3c-5.6 0-10.1 4.6-10.1 10.3 0 5 3.6 9.3 8.4 10.1" fill="#FCE170" p-id="2046"></path><path d="M872.7 496.2C846.9 395 809.1 304.3 763.3 233.8 718.8 123.5 658.6 66 584.1 62.5c-2.1-2-4.3-4-6.5-5.9-7.5-6.1-15.8-11.3-24.8-15.4-7.3-3.3-14.9-5.8-22.8-7.4-4-6.8-11.3-11.4-19.7-11.4-7.9 0-14.9 4.1-19 10.2-6.1 0.9-12 2.3-17.8 4.2h-0.1c-0.6 0.1-1.3 0.3-1.9 0.6l-0.6 0.3c-15.6 5.4-29.8 14.4-41.5 26.1-6.1 0.9-12.3 2.5-18.7 4.7h-0.3c-4.8 0-9.1 1.9-12.3 5.1-36.1 16.9-69.3 53.1-98.6 107.6-56.7 67.8-104 162.8-137 274.7-33.9 115.3-51.9 246.9-51.9 380.4 0 22.1 0.5 45.8 1.6 70.2 0.2 5.3 4.6 9.6 10 9.6H902c5.4 0 9.8-4.2 10-9.6 1.1-25 1.6-48 1.6-70.2-0.1-119.4-13.8-233.8-40.9-340.1zM317.7 896c0.6-20.6 3.1-41.6 7-58.9h60.1V896h-67.1z m87-58.9h214.6V896H404.7v-58.9z m234.6 0h60c3.9 17.5 6.4 38.5 7 58.9h-67v-58.9z m-10-20H326.6L357 754h310.8l30.4 63.1h-68.9zM399.4 715.2c19.5 8.6 39.7 14.9 60.5 18.8H380c7.9-8.6 14.7-14.8 19.4-18.8zM564 734c20.8-3.9 41.1-10.2 60.6-18.8 4.8 4 11.6 10.3 19.3 18.8H564z m58.9-40c-0.7 0.2-1.5 0.6-2.1 1-34.1 15.8-70.7 23.8-108.7 23.8-38.5 0-75.4-8.2-109.8-24.3-63.5-29.8-112.9-84.8-135.6-150.9-9.3-27-14-55.3-14-84.2 0-14.9 1.3-29.8 3.8-44.3 9.6-0.9 19.2-2 29.2-3.6 81.7-12.4 159.6-44.8 225.8-94 66.8 49.4 145 82 226.7 94.2 10.1 1.5 19.8 2.7 29.3 3.5 2.5 14.4 3.7 29.2 3.7 44.2 0 28.6-4.6 56.7-13.7 83.5-0.1 0.3-0.3 0.7-0.4 1.1-22.5 65.7-71.4 120.2-134.2 150z m153.9-297.9c-11.7-0.9-23.3-2.2-35.7-4-80.8-12.1-158.1-44.9-223.5-94.8a10.2 10.2 0 0 0-12.2 0c-64.9 49.7-141.9 82.4-222.7 94.6-12.2 1.8-23.8 3.2-35.4 4-4.8 0.4-10.3 0.8-15.8 1-3.6 0.2-7.1 0.3-10.3 0.4 5.8-65.6 33.7-127.6 79.3-175.5 0.5-0.4 0.9-0.9 1.4-1.4 23.4-24.3 50.7-44.3 81.2-59.4 8.4-4.1 17.2-8 26.1-11.4 0.8-0.2 1.6-0.5 2.3-0.9 3.7-1.4 7.4-2.7 11.2-3.9l2.9 7.5c1.5 3.9 5.2 6.4 9.3 6.4h150.4c4.2 0 7.9-2.6 9.3-6.4l3.2-8.4c2.1 0.6 4.2 1.3 6.4 2.1 11.9 3.9 23.6 8.7 35.8 14.6 43.6 21.2 81.6 53.4 109.8 93 30.2 42.4 48.4 92 53 143.8h-0.6c-9.1-0.2-17.4-0.6-25.4-1.3zM510.4 111.8c4.1 7.3 10.3 12.9 19.9 14 10.3 1.3 17.9-5.8 22.5-12 2.6 7.3 7.3 13.8 15.3 18.3 4.1 2.4 8.2 2.9 12 2.2l-1.7 4.5H441.9l-2-5.1c5.7 1.3 10.1-0.3 12.8-1.8 8.1-4.5 12.7-10.9 15.4-18.1 6 7.9 13.2 13.2 22.4 12 9.6-1.2 15.8-6.7 19.9-14z m75.3-14.9s0 0.1 0.1 0.1c1 1.6 1.9 3.4 2.8 5.3-6.4 8.8-10 11.3-11.4 12-4.6-2.8-7.6-6.9-7.7-25.5 2.5-1.3 4.8-3.2 6.5-5.5 3.8 4.3 7 8.8 9.7 13.6z m-125-26.4s0.1 0.1 0.1 0.3h-0.2v-0.1c0.1-0.1 0.1-0.1 0.1-0.2z m-19.3 9.6c0.3-0.3 0.6-0.7 1-1 1.9 4.2 5.1 7.6 9 9.7 0.1 12.6-1 20.9-7.7 25.2-1.6-0.8-6.3-4.1-14.8-17 3.5-6 7.7-11.7 12.5-16.9z m-42.1 38.6c-1 4.6-1.7 9.4-2.1 14.1-7.9 3.1-15.6 6.6-23 10.2-8.1 4-16 8.3-23.7 13 15.9-14.6 32.2-27.1 48.8-37.3z m249.6 23.9c-10.9-5.3-21.4-9.7-31.9-13.4-0.6-5.8-1.7-11.4-3.3-16.9 20.7 11.3 40.7 26 60 43.9-8.1-4.9-16.4-9.5-24.8-13.6zM546.1 85.2c-2.1 4.4-4.1 8.5-6.2 12.1-4.4 7-6.7 8.5-7.3 8.7-8.2-1.2-10.1-24.2-10.7-31.8-0.3-2.9-0.5-5.9-0.7-8.8 4.3-2.4 7.7-6.1 9.7-10.6 4.4 1.2 8.7 2.7 12.8 4.5-2.3 3.3-3.6 7.3-3.6 11.6 0.1 5.5 2.3 10.6 6 14.3z m-46.6-19.7c-0.2 2.5-0.3 4.9-0.5 7.4-0.2 0.7-0.2 1.4-0.2 2.2v0.4c-2.4 25.9-7.1 30-10.5 30.5-0.5-0.2-2.7-1.6-6.5-7.6-2.3-3.8-4.7-8.5-6.9-13.2 3.7-3.7 5.9-8.8 5.9-14.3 0-5.2-2-9.9-5.1-13.5 0.9-0.3 1.9-0.7 2.8-1h0.1c3.3-1.2 6.8-2.1 10.3-2.8 1.9 5 5.7 9.3 10.6 11.9zM396.1 97.4c-1.5 0.8-2.9 1.7-4.4 2.6 1.4-0.9 2.9-1.8 4.3-2.7 0 0 0.1 0 0.1 0.1zM209.4 417.3c0.4 0 0.8 0.1 1.1 0.1 6.7 0 13.8-0.2 21.9-0.5 1.2 0 2.4-0.1 3.6-0.2-2.2 14-3.3 28.4-3.3 42.8 0 26.4 3.7 52.4 10.9 77.5-10.7-1-21-4.5-30-10.3-19.2-12.4-30.7-33.4-30.7-56.2 0-20.9 10-40.7 26.5-53.2z m6.7 133.2c10.6 4.5 22 6.8 33.6 6.8h0.6C274 620.5 320.5 673.7 380 705.7c-7.2 6.6-16.4 16-25.9 28.3-6 0.1-11.5 3.5-14 8.9l-34.4 71.6c-2.3 4.7-2.1 10 0.4 14.5-4.7 19.3-7.7 43.4-8.3 66.9h-106c0.5-118.6 8.8-237.5 24.3-345.4zM726.3 896c-0.7-23-3.6-46.7-8.2-66.2v-0.1c2.9-4.6 3.2-10.2 0.9-15.2l-34.5-71.6c-2.6-5.4-8.1-8.9-14.1-8.9h-0.4c-9.5-12.2-18.6-21.5-26-28.3 59.5-32.1 106-85.2 129.7-148.4h0.6c13.7 0 27.2-3.3 39.3-9.4 12.1 103.4 18.3 220.4 18.6 348.1H726.3z m89.1-372.9c-10 7.9-22.3 12.7-35 13.9 7.2-25.1 10.9-51 10.9-77.4 0-14.4-1.1-28.7-3.2-42.7 4.4 0.2 9 0.4 13.8 0.5 4 0.1 7.8 0.1 11.9 0.1 0.4 0 0.7 0 1.1-0.1 16.4 12.6 26.3 32.3 26.3 53.1-0.1 20.8-9.4 39.9-25.8 52.6zM692.6 146.5c-21.9-21.1-44.7-38.2-68.5-51.4 0.5-1 1-2 1.3-3.1 24.4 10.2 46.8 28.4 67.2 54.5z m-182.4-104c1.3 0 2.3 0.9 2.7 2.1 0 0.1 0.1 0.3 0.1 0.4v0.3c0 1.5-1.1 2.7-2.7 2.8h-0.3c-1.5-0.1-2.7-1.3-2.7-2.8 0.1-1.6 1.3-2.8 2.9-2.8zM130.5 836.3c0-115.3 13.5-229 39.4-331.7 5.9 13.8 15.3 25.9 27.6 35.2-16.3 111-25.1 233.8-25.6 356.4h-40.1c-0.9-20.9-1.3-40.9-1.3-59.9z m761.8 59.8h-40.1c-0.3-132.8-7-254.1-20-360.9 9.6-8.6 17.1-19 22-30.5 26.1 103.7 39.3 215.2 39.3 331.7 0 19-0.4 38.6-1.2 59.7z" fill="#450064" p-id="2047"></path></svg>